<svg xmlns="http://www.w3.org/2000/svg" xmlns:xlink="http://www.w3.org/1999/xlink" id="Layer_1" x="0px" y="0px" viewBox="0 0 2457 68.3" style="enable-background:new 0 0 2457 68.3;" xml:space="preserve"><style type="text/css">	.st0{fill:#F8A759;}</style><polygon class="st0" points="114.3,55.8 121.7,63.4 136.5,49 136.5,34.1 "></polygon><polygon class="st0" points="101,42.2 108.5,49.8 136.5,22.4 136.5,7.5 "></polygon><polygon class="st0" points="115.7,0 87.1,28 94.6,35.6 131,0 "></polygon><polygon class="st0" points="85.9,0 72.4,13.2 79.9,20.9 101.2,0 "></polygon><polygon class="st0" points="68.2,38.1 98.4,68.3 113.4,68.3 68.2,23.1 "></polygon><polygon class="st0" points="68.2,59.5 77,68.3 92.1,68.3 68.2,44.4 "></polygon><polygon class="st0" points="68.2,17.3 119.2,68.3 134.3,68.3 68.2,2.2 "></polygon><polygon class="st0" points="23.1,68.3 38.1,68.3 68.3,38.1 68.3,23.1 "></polygon><polygon class="st0" points="44.4,68.3 59.5,68.3 68.3,59.5 68.3,44.4 "></polygon><polygon class="st0" points="0,49 14.8,63.4 22.2,55.8 0,34.1 "></polygon><polygon class="st0" points="0,22.4 28,49.8 35.5,42.2 0,7.5 "></polygon><polygon class="st0" points="5.5,0 41.9,35.6 49.3,28 20.7,0 "></polygon><polygon class="st0" points="35.2,0 56.6,20.9 64.1,13.3 50.5,0 "></polygon><polygon class="st0" points="2.2,68.3 17.3,68.3 68.3,17.3 68.3,2.2 "></polygon><polygon class="st0" points="250.8,55.8 258.3,63.4 273,49 273,34.1 "></polygon><polygon class="st0" points="237.5,42.2 245,49.8 273,22.4 273,7.5 "></polygon><polygon class="st0" points="252.2,0 223.6,28 231.1,35.6 267.5,0 "></polygon><polygon class="st0" points="222.5,0 208.9,13.2 216.4,20.9 237.7,0 "></polygon><polygon class="st0" points="204.7,38.1 234.9,68.3 250,68.3 204.7,23.1 "></polygon><polygon class="st0" points="204.7,59.5 213.5,68.3 228.6,68.3 204.7,44.4 "></polygon><polygon class="st0" points="204.7,17.3 255.7,68.3 270.8,68.3 204.7,2.2 "></polygon><polygon class="st0" points="159.6,68.3 174.6,68.3 204.8,38.1 204.8,23.1 "></polygon><polygon class="st0" points="180.9,68.3 196,68.3 204.8,59.5 204.8,44.4 "></polygon><polygon class="st0" points="136.5,49 151.3,63.4 158.7,55.8 136.5,34.1 "></polygon><polygon class="st0" points="136.5,22.4 164.5,49.8 172,42.2 136.5,7.5 "></polygon><polygon class="st0" points="142,0 178.4,35.6 185.9,28 157.2,0 "></polygon><polygon class="st0" points="171.8,0 193.1,20.9 200.6,13.3 187,0 "></polygon><polygon class="st0" points="138.7,68.3 153.8,68.3 204.8,17.3 204.8,2.2 "></polygon><polygon class="st0" points="387.3,55.8 394.8,63.4 409.5,49 409.5,34.1 "></polygon><polygon class="st0" points="374,42.2 381.5,49.8 409.5,22.4 409.5,7.5 "></polygon><polygon class="st0" points="388.7,0 360.1,28 367.6,35.6 404,0 "></polygon><polygon class="st0" points="359,0 345.4,13.2 352.9,20.9 374.2,0 "></polygon><polygon class="st0" points="341.2,38.1 371.4,68.3 386.5,68.3 341.2,23.1 "></polygon><polygon class="st0" points="341.2,59.5 350,68.3 365.1,68.3 341.2,44.4 "></polygon><polygon class="st0" points="341.2,17.3 392.2,68.3 407.3,68.3 341.2,2.2 "></polygon><polygon class="st0" points="296.1,68.3 311.2,68.3 341.4,38.1 341.4,23.1 "></polygon><polygon class="st0" points="317.4,68.3 332.5,68.3 341.4,59.5 341.4,44.4 "></polygon><polygon class="st0" points="273,49 287.8,63.4 295.2,55.8 273,34.1 "></polygon><polygon class="st0" points="273,22.4 301,49.8 308.5,42.2 273,7.5 "></polygon><polygon class="st0" points="278.5,0 314.9,35.6 322.4,28 293.7,0 "></polygon><polygon class="st0" points="308.3,0 329.6,20.9 337.1,13.3 323.5,0 "></polygon><polygon class="st0" points="275.2,68.3 290.3,68.3 341.4,17.3 341.4,2.2 "></polygon><polygon class="st0" points="523.8,55.8 531.3,63.4 546,49 546,34.1 "></polygon><polygon class="st0" points="510.5,42.2 518,49.8 546,22.4 546,7.5 "></polygon><polygon class="st0" points="525.3,0 496.7,28 504.1,35.6 540.5,0 "></polygon><polygon class="st0" points="495.5,0 481.9,13.2 489.4,20.9 510.7,0 "></polygon><polygon class="st0" points="477.7,38.1 507.9,68.3 523,68.3 477.7,23.1 "></polygon><polygon class="st0" points="477.7,59.5 486.6,68.3 501.6,68.3 477.7,44.4 "></polygon><polygon class="st0" points="477.7,17.3 528.7,68.3 543.8,68.3 477.7,2.2 "></polygon><polygon class="st0" points="432.6,68.3 447.7,68.3 477.9,38.1 477.9,23.1 "></polygon><polygon class="st0" points="453.9,68.3 469,68.3 477.9,59.5 477.9,44.4 "></polygon><polygon class="st0" points="409.5,49 424.3,63.4 431.7,55.8 409.5,34.1 "></polygon><polygon class="st0" points="409.5,22.4 437.6,49.8 445,42.2 409.5,7.5 "></polygon><polygon class="st0" points="415,0 451.4,35.6 458.9,28 430.2,0 "></polygon><polygon class="st0" points="444.8,0 466.2,20.9 473.6,13.3 460,0 "></polygon><polygon class="st0" points="411.8,68.3 426.8,68.3 477.9,17.3 477.9,2.2 "></polygon><polygon class="st0" points="660.3,55.8 667.8,63.4 682.6,49 682.6,34.1 "></polygon><polygon class="st0" points="647,42.2 654.5,49.8 682.6,22.4 682.6,7.5 "></polygon><polygon class="st0" points="661.8,0 633.2,28 640.6,35.6 677,0 "></polygon><polygon class="st0" points="632,0 618.4,13.2 625.9,20.9 647.2,0 "></polygon><polygon class="st0" points="614.2,38.1 644.4,68.3 659.5,68.3 614.2,23.1 "></polygon><polygon class="st0" points="614.2,59.5 623.1,68.3 638.1,68.3 614.2,44.4 "></polygon><polygon class="st0" points="614.2,17.3 665.3,68.3 680.3,68.3 614.2,2.2 "></polygon><polygon class="st0" points="569.1,68.3 584.2,68.3 614.4,38.1 614.4,23.1 "></polygon><polygon class="st0" points="590.5,68.3 605.5,68.3 614.4,59.5 614.4,44.4 "></polygon><polygon class="st0" points="546,49 560.8,63.4 568.3,55.8 546,34.1 "></polygon><polygon class="st0" points="546,22.4 574.1,49.8 581.5,42.2 546,7.5 "></polygon><polygon class="st0" points="551.5,0 587.9,35.6 595.4,28 566.8,0 "></polygon><polygon class="st0" points="581.3,0 602.7,20.9 610.1,13.3 596.5,0 "></polygon><polygon class="st0" points="548.3,68.3 563.3,68.3 614.4,17.3 614.4,2.2 "></polygon><polygon class="st0" points="796.8,55.8 804.3,63.4 819,49 819,34.1 "></polygon><polygon class="st0" points="783.5,42.2 791,49.8 819,22.4 819,7.5 "></polygon><polygon class="st0" points="798.2,0 769.6,28 777.1,35.6 813.5,0 "></polygon><polygon class="st0" points="768.5,0 754.9,13.2 762.4,20.9 783.7,0 "></polygon><polygon class="st0" points="750.7,38.1 780.9,68.3 796,68.3 750.7,23.1 "></polygon><polygon class="st0" points="750.7,59.5 759.5,68.3 774.6,68.3 750.7,44.4 "></polygon><polygon class="st0" points="750.7,17.3 801.7,68.3 816.8,68.3 750.7,2.2 "></polygon><polygon class="st0" points="705.6,68.3 720.7,68.3 750.8,38.1 750.8,23.1 "></polygon><polygon class="st0" points="726.9,68.3 742,68.3 750.8,59.5 750.8,44.4 "></polygon><polygon class="st0" points="682.5,49 697.3,63.4 704.7,55.8 682.5,34.1 "></polygon><polygon class="st0" points="682.5,22.4 710.5,49.8 718,42.2 682.5,7.5 "></polygon><polygon class="st0" points="688,0 724.4,35.6 731.9,28 703.2,0 "></polygon><polygon class="st0" points="717.8,0 739.1,20.9 746.6,13.3 733,0 "></polygon><polygon class="st0" points="684.7,68.3 699.8,68.3 750.8,17.3 750.8,2.2 "></polygon><polygon class="st0" points="933.3,55.8 940.8,63.4 955.5,49 955.5,34.1 "></polygon><polygon class="st0" points="920,42.2 927.5,49.8 955.5,22.4 955.5,7.5 "></polygon><polygon class="st0" points="934.7,0 906.1,28 913.6,35.6 950,0 "></polygon><polygon class="st0" points="905,0 891.4,13.2 898.9,20.9 920.2,0 "></polygon><polygon class="st0" points="887.2,38.1 917.4,68.3 932.5,68.3 887.2,23.1 "></polygon><polygon class="st0" points="887.2,59.5 896,68.3 911.1,68.3 887.2,44.4 "></polygon><polygon class="st0" points="887.2,17.3 938.2,68.3 953.3,68.3 887.2,2.2 "></polygon><polygon class="st0" points="842.1,68.3 857.1,68.3 887.3,38.1 887.3,23.1 "></polygon><polygon class="st0" points="863.4,68.3 878.5,68.3 887.3,59.5 887.3,44.4 "></polygon><polygon class="st0" points="819,49 833.8,63.4 841.2,55.8 819,34.1 "></polygon><polygon class="st0" points="819,22.4 847,49.8 854.5,42.2 819,7.5 "></polygon><polygon class="st0" points="824.5,0 860.9,35.6 868.4,28 839.7,0 "></polygon><polygon class="st0" points="854.3,0 875.6,20.9 883.1,13.3 869.5,0 "></polygon><polygon class="st0" points="821.2,68.3 836.3,68.3 887.3,17.3 887.3,2.2 "></polygon><polygon class="st0" points="1069.8,55.8 1077.3,63.4 1092,49 1092,34.1 "></polygon><polygon class="st0" points="1056.5,42.2 1064,49.8 1092,22.4 1092,7.5 "></polygon><polygon class="st0" points="1071.2,0 1042.6,28 1050.1,35.6 1086.5,0 "></polygon><polygon class="st0" points="1041.5,0 1027.9,13.2 1035.4,20.9 1056.7,0 "></polygon><polygon class="st0" points="1023.7,38.1 1053.9,68.3 1069,68.3 1023.7,23.1 "></polygon><polygon class="st0" points="1023.7,59.5 1032.5,68.3 1047.6,68.3 1023.7,44.4 "></polygon><polygon class="st0" points="1023.7,17.3 1074.7,68.3 1089.8,68.3 1023.7,2.2 "></polygon><polygon class="st0" points="978.6,68.3 993.7,68.3 1023.9,38.1 1023.9,23.1 "></polygon><polygon class="st0" points="999.9,68.3 1015,68.3 1023.9,59.5 1023.9,44.4 "></polygon><polygon class="st0" points="955.5,49 970.3,63.4 977.7,55.8 955.5,34.1 "></polygon><polygon class="st0" points="955.5,22.4 983.5,49.8 991,42.2 955.5,7.5 "></polygon><polygon class="st0" points="961,0 997.4,35.6 1004.9,28 976.2,0 "></polygon><polygon class="st0" points="990.8,0 1012.1,20.9 1019.6,13.3 1006,0 "></polygon><polygon class="st0" points="957.7,68.3 972.8,68.3 1023.9,17.3 1023.9,2.2 "></polygon><polygon class="st0" points="1206.3,55.8 1213.7,63.4 1228.5,49 1228.5,34.1 "></polygon><polygon class="st0" points="1193,42.2 1200.4,49.8 1228.5,22.4 1228.5,7.5 "></polygon><polygon class="st0" points="1207.7,0 1179.1,28 1186.6,35.6 1223,0 "></polygon><polygon class="st0" points="1177.9,0 1164.4,13.2 1171.8,20.9 1193.2,0 "></polygon><polygon class="st0" points="1160.2,38.1 1190.4,68.3 1205.4,68.3 1160.2,23.1 "></polygon><polygon class="st0" points="1160.2,59.5 1169,68.3 1184.1,68.3 1160.2,44.4 "></polygon><polygon class="st0" points="1160.2,17.3 1211.2,68.3 1226.3,68.3 1160.2,2.2 "></polygon><polygon class="st0" points="1115,68.3 1130.1,68.3 1160.3,38.1 1160.3,23.1 "></polygon><polygon class="st0" points="1136.4,68.3 1151.5,68.3 1160.3,59.5 1160.3,44.4 "></polygon><polygon class="st0" points="1092,49 1106.8,63.4 1114.2,55.8 1092,34.1 "></polygon><polygon class="st0" points="1092,22.4 1120,49.8 1127.5,42.2 1092,7.5 "></polygon><polygon class="st0" points="1097.5,0 1133.9,35.6 1141.3,28 1112.7,0 "></polygon><polygon class="st0" points="1127.2,0 1148.6,20.9 1156.1,13.3 1142.5,0 "></polygon><polygon class="st0" points="1094.2,68.3 1109.3,68.3 1160.3,17.3 1160.3,2.2 "></polygon><polygon class="st0" points="1342.8,55.8 1350.2,63.4 1365,49 1365,34.1 "></polygon><polygon class="st0" points="1329.5,42.2 1337,49.8 1365,22.4 1365,7.5 "></polygon><polygon class="st0" points="1344.2,0 1315.6,28 1323.1,35.6 1359.5,0 "></polygon><polygon class="st0" points="1314.4,0 1300.9,13.2 1308.4,20.9 1329.7,0 "></polygon><polygon class="st0" points="1296.7,38.1 1326.9,68.3 1341.9,68.3 1296.7,23.1 "></polygon><polygon class="st0" points="1296.7,59.5 1305.5,68.3 1320.6,68.3 1296.7,44.4 "></polygon><polygon class="st0" points="1296.7,17.3 1347.7,68.3 1362.8,68.3 1296.7,2.2 "></polygon><polygon class="st0" points="1251.6,68.3 1266.6,68.3 1296.8,38.1 1296.8,23.1 "></polygon><polygon class="st0" points="1272.9,68.3 1288,68.3 1296.8,59.5 1296.8,44.4 "></polygon><polygon class="st0" points="1228.5,49 1243.3,63.4 1250.7,55.8 1228.5,34.1 "></polygon><polygon class="st0" points="1228.5,22.4 1256.5,49.8 1264,42.2 1228.5,7.5 "></polygon><polygon class="st0" points="1234,0 1270.4,35.6 1277.8,28 1249.2,0 "></polygon><polygon class="st0" points="1263.7,0 1285.1,20.9 1292.6,13.3 1279,0 "></polygon><polygon class="st0" points="1230.7,68.3 1245.8,68.3 1296.8,17.3 1296.8,2.2 "></polygon><polygon class="st0" points="1479.3,55.8 1486.8,63.4 1501.5,49 1501.5,34.1 "></polygon><polygon class="st0" points="1466,42.2 1473.5,49.8 1501.5,22.4 1501.5,7.5 "></polygon><polygon class="st0" points="1480.7,0 1452.1,28 1459.6,35.6 1496,0 "></polygon><polygon class="st0" points="1451,0 1437.4,13.2 1444.9,20.9 1466.2,0 "></polygon><polygon class="st0" points="1433.2,38.1 1463.4,68.3 1478.5,68.3 1433.2,23.1 "></polygon><polygon class="st0" points="1433.2,59.5 1442,68.3 1457.1,68.3 1433.2,44.4 "></polygon><polygon class="st0" points="1433.2,17.3 1484.2,68.3 1499.3,68.3 1433.2,2.2 "></polygon><polygon class="st0" points="1388.1,68.3 1403.1,68.3 1433.3,38.1 1433.3,23.1 "></polygon><polygon class="st0" points="1409.4,68.3 1424.5,68.3 1433.3,59.5 1433.3,44.4 "></polygon><polygon class="st0" points="1365,49 1379.8,63.4 1387.2,55.8 1365,34.1 "></polygon><polygon class="st0" points="1365,22.4 1393,49.8 1400.5,42.2 1365,7.5 "></polygon><polygon class="st0" points="1370.5,0 1406.9,35.6 1414.4,28 1385.7,0 "></polygon><polygon class="st0" points="1400.3,0 1421.6,20.9 1429.1,13.3 1415.5,0 "></polygon><polygon class="st0" points="1367.2,68.3 1382.3,68.3 1433.3,17.3 1433.3,2.2 "></polygon><polygon class="st0" points="1615.8,55.8 1623.3,63.4 1638,49 1638,34.1 "></polygon><polygon class="st0" points="1602.5,42.2 1610,49.8 1638,22.4 1638,7.5 "></polygon><polygon class="st0" points="1617.2,0 1588.6,28 1596.1,35.6 1632.5,0 "></polygon><polygon class="st0" points="1587.5,0 1573.9,13.2 1581.4,20.9 1602.7,0 "></polygon><polygon class="st0" points="1569.7,38.1 1599.9,68.3 1615,68.3 1569.7,23.1 "></polygon><polygon class="st0" points="1569.7,59.5 1578.5,68.3 1593.6,68.3 1569.7,44.4 "></polygon><polygon class="st0" points="1569.7,17.3 1620.7,68.3 1635.8,68.3 1569.7,2.2 "></polygon><polygon class="st0" points="1524.6,68.3 1539.7,68.3 1569.9,38.1 1569.9,23.1 "></polygon><polygon class="st0" points="1545.9,68.3 1561,68.3 1569.9,59.5 1569.9,44.4 "></polygon><polygon class="st0" points="1501.5,49 1516.3,63.4 1523.7,55.8 1501.5,34.1 "></polygon><polygon class="st0" points="1501.5,22.4 1529.5,49.8 1537,42.2 1501.5,7.5 "></polygon><polygon class="st0" points="1507,0 1543.4,35.6 1550.9,28 1522.2,0 "></polygon><polygon class="st0" points="1536.8,0 1558.1,20.9 1565.6,13.3 1552,0 "></polygon><polygon class="st0" points="1503.7,68.3 1518.8,68.3 1569.9,17.3 1569.9,2.2 "></polygon><polygon class="st0" points="1752.3,55.8 1759.8,63.4 1774.5,49 1774.5,34.1 "></polygon><polygon class="st0" points="1739,42.2 1746.5,49.8 1774.5,22.4 1774.5,7.5 "></polygon><polygon class="st0" points="1753.8,0 1725.2,28 1732.6,35.6 1769,0 "></polygon><polygon class="st0" points="1724,0 1710.4,13.2 1717.9,20.9 1739.2,0 "></polygon><polygon class="st0" points="1706.2,38.1 1736.4,68.3 1751.5,68.3 1706.2,23.1 "></polygon><polygon class="st0" points="1706.2,59.5 1715.1,68.3 1730.1,68.3 1706.2,44.4 "></polygon><polygon class="st0" points="1706.2,17.3 1757.2,68.3 1772.3,68.3 1706.2,2.2 "></polygon><polygon class="st0" points="1661.1,68.3 1676.2,68.3 1706.4,38.1 1706.4,23.1 "></polygon><polygon class="st0" points="1682.4,68.3 1697.5,68.3 1706.4,59.5 1706.4,44.4 "></polygon><polygon class="st0" points="1638,49 1652.8,63.4 1660.2,55.8 1638,34.1 "></polygon><polygon class="st0" points="1638,22.4 1666.1,49.8 1673.5,42.2 1638,7.5 "></polygon><polygon class="st0" points="1643.5,0 1679.9,35.6 1687.4,28 1658.7,0 "></polygon><polygon class="st0" points="1673.3,0 1694.7,20.9 1702.1,13.3 1688.5,0 "></polygon><polygon class="st0" points="1640.3,68.3 1655.3,68.3 1706.4,17.3 1706.4,2.2 "></polygon><polygon class="st0" points="1888.8,55.8 1896.3,63.4 1911.1,49 1911.1,34.1 "></polygon><polygon class="st0" points="1875.5,42.2 1883,49.8 1911.1,22.4 1911.1,7.5 "></polygon><polygon class="st0" points="1890.3,0 1861.7,28 1869.1,35.6 1905.5,0 "></polygon><polygon class="st0" points="1860.5,0 1846.9,13.2 1854.4,20.9 1875.7,0 "></polygon><polygon class="st0" points="1842.7,38.1 1872.9,68.3 1888,68.3 1842.7,23.1 "></polygon><polygon class="st0" points="1842.7,59.5 1851.6,68.3 1866.6,68.3 1842.7,44.4 "></polygon><polygon class="st0" points="1842.7,17.3 1893.8,68.3 1908.8,68.3 1842.7,2.2 "></polygon><polygon class="st0" points="1797.6,68.3 1812.7,68.3 1842.9,38.1 1842.9,23.1 "></polygon><polygon class="st0" points="1819,68.3 1834,68.3 1842.9,59.5 1842.9,44.4 "></polygon><polygon class="st0" points="1774.5,49 1789.3,63.4 1796.8,55.8 1774.5,34.1 "></polygon><polygon class="st0" points="1774.5,22.4 1802.6,49.8 1810,42.2 1774.5,7.5 "></polygon><polygon class="st0" points="1780,0 1816.4,35.6 1823.9,28 1795.3,0 "></polygon><polygon class="st0" points="1809.8,0 1831.2,20.9 1838.6,13.3 1825,0 "></polygon><polygon class="st0" points="1776.8,68.3 1791.8,68.3 1842.9,17.3 1842.9,2.2 "></polygon><polygon class="st0" points="2025.3,55.8 2032.8,63.4 2047.5,49 2047.5,34.1 "></polygon><polygon class="st0" points="2012,42.2 2019.5,49.8 2047.5,22.4 2047.5,7.5 "></polygon><polygon class="st0" points="2026.7,0 1998.1,28 2005.6,35.6 2042,0 "></polygon><polygon class="st0" points="1997,0 1983.4,13.2 1990.9,20.9 2012.2,0 "></polygon><polygon class="st0" points="1979.2,38.1 2009.4,68.3 2024.5,68.3 1979.2,23.1 "></polygon><polygon class="st0" points="1979.2,59.5 1988,68.3 2003.1,68.3 1979.2,44.4 "></polygon><polygon class="st0" points="1979.2,17.3 2030.2,68.3 2045.3,68.3 1979.2,2.2 "></polygon><polygon class="st0" points="1934.1,68.3 1949.2,68.3 1979.3,38.1 1979.3,23.1 "></polygon><polygon class="st0" points="1955.4,68.3 1970.5,68.3 1979.3,59.5 1979.3,44.4 "></polygon><polygon class="st0" points="1911,49 1925.8,63.4 1933.2,55.8 1911,34.1 "></polygon><polygon class="st0" points="1911,22.4 1939,49.8 1946.5,42.2 1911,7.5 "></polygon><polygon class="st0" points="1916.5,0 1952.9,35.6 1960.4,28 1931.7,0 "></polygon><polygon class="st0" points="1946.3,0 1967.6,20.9 1975.1,13.3 1961.5,0 "></polygon><polygon class="st0" points="1913.2,68.3 1928.3,68.3 1979.3,17.3 1979.3,2.2 "></polygon><polygon class="st0" points="2161.8,55.8 2169.3,63.4 2184,49 2184,34.1 "></polygon><polygon class="st0" points="2148.5,42.2 2156,49.8 2184,22.4 2184,7.5 "></polygon><polygon class="st0" points="2163.2,0 2134.6,28 2142.1,35.6 2178.5,0 "></polygon><polygon class="st0" points="2133.5,0 2119.9,13.2 2127.4,20.9 2148.7,0 "></polygon><polygon class="st0" points="2115.7,38.1 2145.9,68.3 2161,68.3 2115.7,23.1 "></polygon><polygon class="st0" points="2115.7,59.5 2124.5,68.3 2139.6,68.3 2115.7,44.4 "></polygon><polygon class="st0" points="2115.7,17.3 2166.7,68.3 2181.8,68.3 2115.7,2.2 "></polygon><polygon class="st0" points="2070.6,68.3 2085.6,68.3 2115.8,38.1 2115.8,23.1 "></polygon><polygon class="st0" points="2091.9,68.3 2107,68.3 2115.8,59.5 2115.8,44.4 "></polygon><polygon class="st0" points="2047.5,49 2062.3,63.4 2069.7,55.8 2047.5,34.1 "></polygon><polygon class="st0" points="2047.5,22.4 2075.5,49.8 2083,42.2 2047.5,7.5 "></polygon><polygon class="st0" points="2053,0 2089.4,35.6 2096.9,28 2068.2,0 "></polygon><polygon class="st0" points="2082.8,0 2104.1,20.9 2111.6,13.3 2098,0 "></polygon><polygon class="st0" points="2049.7,68.3 2064.8,68.3 2115.8,17.3 2115.8,2.2 "></polygon><polygon class="st0" points="2298.3,55.8 2305.8,63.4 2320.5,49 2320.5,34.1 "></polygon><polygon class="st0" points="2285,42.2 2292.5,49.8 2320.5,22.4 2320.5,7.5 "></polygon><polygon class="st0" points="2299.7,0 2271.1,28 2278.6,35.6 2315,0 "></polygon><polygon class="st0" points="2270,0 2256.4,13.2 2263.9,20.9 2285.2,0 "></polygon><polygon class="st0" points="2252.2,38.1 2282.4,68.3 2297.5,68.3 2252.2,23.1 "></polygon><polygon class="st0" points="2252.2,59.5 2261,68.3 2276.1,68.3 2252.2,44.4 "></polygon><polygon class="st0" points="2252.2,17.3 2303.2,68.3 2318.3,68.3 2252.2,2.2 "></polygon><polygon class="st0" points="2207.1,68.3 2222.2,68.3 2252.4,38.1 2252.4,23.1 "></polygon><polygon class="st0" points="2228.4,68.3 2243.5,68.3 2252.4,59.5 2252.4,44.4 "></polygon><polygon class="st0" points="2184,49 2198.8,63.4 2206.2,55.8 2184,34.1 "></polygon><polygon class="st0" points="2184,22.4 2212,49.8 2219.5,42.2 2184,7.5 "></polygon><polygon class="st0" points="2189.5,0 2225.9,35.6 2233.4,28 2204.7,0 "></polygon><polygon class="st0" points="2219.3,0 2240.6,20.9 2248.1,13.3 2234.5,0 "></polygon><polygon class="st0" points="2186.2,68.3 2201.3,68.3 2252.4,17.3 2252.4,2.2 "></polygon><polygon class="st0" points="2434.8,55.8 2442.2,63.4 2457,49 2457,34.1 "></polygon><polygon class="st0" points="2421.5,42.2 2428.9,49.8 2457,22.4 2457,7.5 "></polygon><polygon class="st0" points="2436.2,0 2407.6,28 2415.1,35.6 2451.5,0 "></polygon><polygon class="st0" points="2406.4,0 2392.9,13.2 2400.3,20.9 2421.7,0 "></polygon><polygon class="st0" points="2388.7,38.1 2418.9,68.3 2433.9,68.3 2388.7,23.1 "></polygon><polygon class="st0" points="2388.7,59.5 2397.5,68.3 2412.6,68.3 2388.7,44.4 "></polygon><polygon class="st0" points="2388.7,17.3 2439.7,68.3 2454.8,68.3 2388.7,2.2 "></polygon><polygon class="st0" points="2343.5,68.3 2358.6,68.3 2388.8,38.1 2388.8,23.1 "></polygon><polygon class="st0" points="2364.9,68.3 2380,68.3 2388.8,59.5 2388.8,44.4 "></polygon><polygon class="st0" points="2320.5,49 2335.2,63.4 2342.7,55.8 2320.5,34.1 "></polygon><polygon class="st0" points="2320.5,22.4 2348.5,49.8 2356,42.2 2320.5,7.5 "></polygon><polygon class="st0" points="2326,0 2362.4,35.6 2369.8,28 2341.2,0 "></polygon><polygon class="st0" points="2355.7,0 2377.1,20.9 2384.6,13.3 2371,0 "></polygon><polygon class="st0" points="2322.7,68.3 2337.8,68.3 2388.8,17.3 2388.8,2.2 "></polygon></svg>