<svg id="Layer_1" data-name="Layer 1" xmlns="http://www.w3.org/2000/svg" viewBox="0 0 297.15 91.89"><defs><style>.cls-1{fill:#fff;}</style></defs><title>logo-gray</title><path class="cls-1" d="M577.56,429.92a.79.79,0,0,1-.12-1.58l2.79-.43-3.61-.42a.8.8,0,0,1-.71-.74.79.79,0,0,1,.62-.82l7-1.58h-7.79a.8.8,0,0,1-.2-1.57l9.28-2.41-10.34.94a.79.79,0,0,1-.26-1.56l16-3.77h-17.4a.8.8,0,0,1-.13-1.58l16.09-2.61-18.89-.54a.79.79,0,0,1,0-1.58l19.63-1.51-21.09-1.64a.8.8,0,0,1,.05-1.59l25.27-.38-23.38-3.27a.78.78,0,0,1-.68-.83.79.79,0,0,1,.76-.75l23.49-.77L570.4,396.1a.79.79,0,0,1-.7-.81.79.79,0,0,1,.74-.77l21.16-1.3-23.7-2.17a.79.79,0,0,1-.73-.79.8.8,0,0,1,.74-.79l24.45-1.82-27.89-1a.81.81,0,0,1-.77-.75.79.79,0,0,1,.69-.83l31.06-4.33-52.7,1.81a.8.8,0,0,1-.12-1.59l59.48-7-66.55-.21a.8.8,0,0,1,0-1.59L591.69,368l-56.17-3.12a.8.8,0,0,1,0-1.59l50.35-4.14-49-2.32a.81.81,0,0,1-.76-.78.8.8,0,0,1,.72-.81l47.8-5-38.75-1.84a.8.8,0,0,1-.09-1.58l18.06-3.08L556,342.67a.8.8,0,0,1,.22-1.58l13,1.78a.79.79,0,0,1,0,1.57l-16,2.73,41.89,2a.79.79,0,0,1,.05,1.58l-47.81,5,50.79,2.41a.8.8,0,0,1,0,1.59L547.13,364l57,3.16a.8.8,0,0,1,0,1.59l-47.72,3.49,58.88.19a.79.79,0,0,1,.09,1.58l-53.61,6.34,48.88-1.68a.79.79,0,0,1,.13,1.58l-37.16,5.18,33.17,1.2a.81.81,0,0,1,.77.78.79.79,0,0,1-.74.81l-29.21,2.17,24.52,2.25a.79.79,0,0,1,.73.8.8.8,0,0,1-.75.78l-22.81,1.4,25.14,3a.79.79,0,0,1,.69.83.78.78,0,0,1-.76.75L579.7,401l24.44,3.41a.81.81,0,0,1,.69.84.8.8,0,0,1-.79.74l-18.41.28,14.24,1.11a.79.79,0,0,1,0,1.58l-14.81,1.14,12.14.34a.81.81,0,0,1,.77.75.79.79,0,0,1-.67.83l-14.63,2.38h14.41a.8.8,0,0,1,.18,1.57l-11.68,2.75,8.76-.8a.8.8,0,0,1,.85.66.79.79,0,0,1-.58.9L582,422.76h8.69a.78.78,0,0,1,.79.7.79.79,0,0,1-.61.87l-9.39,2.12,4.82.56a.79.79,0,0,1,0,1.57l-8.61,1.33Z" transform="translate(-534.77 -338.03)"/><rect class="cls-1" x="98.06" width="0.77" height="75.55"/><path class="cls-1" d="M650.79,360.08l8.42-21.42h2.29l8.21,21.42h-2.08l-2.47-6.72H655.4l-2.53,6.72Zm5.29-8.45h8.39l-4.19-11.25Z" transform="translate(-534.77 -338.03)"/><path class="cls-1" d="M677,341.39H677v18.69h-2V338.66h2.29l12.38,18.71h.06V338.66h2v21.42h-2.35Z" transform="translate(-534.77 -338.03)"/><path class="cls-1" d="M701.1,341.39H701v18.69h-2V338.66h2.29l12.38,18.71h.06V338.66h2v21.42h-2.35Z" transform="translate(-534.77 -338.03)"/><path class="cls-1" d="M722.46,338.66h2v12.76q0,4,1.48,5.74c1,1.17,2.59,1.76,4.79,1.76a8.25,8.25,0,0,0,2.94-.46,4.49,4.49,0,0,0,1.94-1.4,5.76,5.76,0,0,0,1.08-2.34,15.12,15.12,0,0,0,.32-3.3V338.66h2V352q0,4.19-2.07,6.41t-6.24,2.22c-2.79,0-4.88-.76-6.24-2.27a9.11,9.11,0,0,1-2.06-6.36Z" transform="translate(-534.77 -338.03)"/><path class="cls-1" d="M741.54,360.08,750,338.66h2.29l8.21,21.42h-2.08l-2.47-6.72h-9.76l-2.53,6.72Zm5.29-8.45h8.39L751,340.38Z" transform="translate(-534.77 -338.03)"/><path class="cls-1" d="M765.55,360.08V338.66h2v19.69h11.49v1.73Z" transform="translate(-534.77 -338.03)"/><path class="cls-1" d="M665.5,385.82H652.42V365.58h4.23v16.73h8.85Z" transform="translate(-534.77 -338.03)"/><path class="cls-1" d="M683.84,385.82H670.43V365.58h13.41v3.49h-9.17V374h8.65v3.26h-8.65v5.1h9.17Z" transform="translate(-534.77 -338.03)"/><path class="cls-1" d="M701.41,380.91H694.3l-1.54,4.91h-4.35l7-20.24h5l7,20.24H703Zm-6.2-3.17h5.29l-2.59-8.29h-.1Z" transform="translate(-534.77 -338.03)"/><path class="cls-1" d="M719.89,365.58c6.08,0,9.65,3.62,9.65,10s-3.57,10.2-9.65,10.2h-7.72V365.58Zm-3.49,16.73h3c3.78,0,5.83-2.3,5.83-6.67s-2.1-6.57-5.83-6.57h-3Z" transform="translate(-534.77 -338.03)"/><path class="cls-1" d="M748.51,385.82h-13.4V365.58h13.4v3.49h-9.17V374H748v3.26h-8.65v5.1h9.17Z" transform="translate(-534.77 -338.03)"/><path class="cls-1" d="M758.7,385.82h-4.24V365.58h8.29c4.66,0,7.32,2.46,7.32,6.45a6,6,0,0,1-3.67,5.75l4.26,8h-4.8l-3.77-7.41H758.7Zm0-10.48h3.64a3,3,0,0,0,3.38-3.22,3.1,3.1,0,0,0-3.42-3.23h-3.6Z" transform="translate(-534.77 -338.03)"/><path class="cls-1" d="M778.63,380c.27,1.7,2,2.71,4.28,2.71s3.8-1.1,3.8-2.58-1-2.09-3.49-2.61l-2.14-.42c-4-.8-6-2.74-6-5.75,0-3.71,3.22-6.16,7.73-6.16,4.72,0,7.69,2.47,7.76,6.18h-4c-.14-1.72-1.64-2.76-3.77-2.76s-3.5,1-3.5,2.47c0,1.25,1,2,3.37,2.5l2.14.43c4.28.86,6.15,2.58,6.15,5.65,0,4-3.1,6.45-8.16,6.45-4.83,0-8-2.3-8.17-6.11Z" transform="translate(-534.77 -338.03)"/><path class="cls-1" d="M661.53,412.52c-6,0-9.75-3.94-9.75-10.52s3.71-10.4,9.65-10.4c4.73,0,8.29,2.79,8.89,6.88h-4.25a4.56,4.56,0,0,0-4.62-3.38c-3.34,0-5.35,2.54-5.35,6.85s2.13,7.06,5.5,7.06c2.76,0,4.68-1.69,4.77-4.2v-.33H662V401.4h8.53v2.28C670.51,409.2,667.17,412.52,661.53,412.52Z" transform="translate(-534.77 -338.03)"/><path class="cls-1" d="M688.29,407.27h-7.11l-1.55,4.91h-4.34l7-20.23h5l7,20.23h-4.5Zm-6.2-3.16h5.28l-2.59-8.29h-.1Z" transform="translate(-534.77 -338.03)"/><path class="cls-1" d="M701.64,412.18V395.44h-5.85V392h15.94v3.49h-5.86v16.74Z" transform="translate(-534.77 -338.03)"/><path class="cls-1" d="M729.1,412.18v-8.52H720v8.52h-4.23V392H720v8.22h9.12V392h4.23v20.23Z" transform="translate(-534.77 -338.03)"/><path class="cls-1" d="M753.41,412.18H740V392h13.4v3.49h-9.17v4.88h8.65v3.25h-8.65v5.11h9.17Z" transform="translate(-534.77 -338.03)"/><path class="cls-1" d="M763.6,412.18h-4.24V392h8.29c4.66,0,7.32,2.45,7.32,6.45a6,6,0,0,1-3.67,5.75l4.26,8h-4.8l-3.77-7.4H763.6Zm0-10.47h3.64a3,3,0,0,0,3.38-3.23,3.1,3.1,0,0,0-3.42-3.22h-3.6Z" transform="translate(-534.77 -338.03)"/><path class="cls-1" d="M779.22,412.18V392h4.23v20.23Z" transform="translate(-534.77 -338.03)"/><path class="cls-1" d="M790.15,412.18V392h3.54l9.45,13.18h.11V392h4v20.23h-3.5l-9.47-13.25h-.13v13.25Z" transform="translate(-534.77 -338.03)"/><path class="cls-1" d="M823,412.52c-6.05,0-9.75-3.94-9.75-10.52s3.7-10.4,9.65-10.4c4.73,0,8.29,2.79,8.89,6.88h-4.25a4.57,4.57,0,0,0-4.63-3.38c-3.33,0-5.34,2.54-5.34,6.85S819.65,409,823,409c2.76,0,4.68-1.69,4.77-4.2v-.33h-4.4V401.4h8.52v2.28C831.92,409.2,828.59,412.52,823,412.52Z" transform="translate(-534.77 -338.03)"/></svg>