<svg enable-background="new 0 0 433.2 145.64" viewBox="0 0 433.2 145.64" xmlns="http://www.w3.org/2000/svg"><path d="m70.31 139.55c-.54 0-1.01-.39-1.09-.94-.09-.6.32-1.17.93-1.26l3.9-.6-5.05-.59c-.54-.06-.95-.5-.98-1.04s.34-1.02.86-1.14l9.76-2.21h-10.87c-.56 0-1.03-.41-1.1-.97-.07-.55.28-1.07.82-1.21l12.94-3.36-14.42 1.31c-.58.05-1.1-.35-1.19-.93-.09-.57.27-1.12.84-1.26l22.31-5.25h-24.25c-.58 0-1.06-.44-1.1-1.02-.05-.58.36-1.09.93-1.18l22.43-3.65-26.34-.75c-.59-.02-1.06-.49-1.08-1.08-.01-.59.44-1.09 1.02-1.13l27.36-2.1-29.39-2.28c-.59-.05-1.04-.55-1.02-1.14s.5-1.06 1.09-1.07l35.23-.53-32.6-4.56c-.57-.08-.98-.58-.95-1.16.03-.57.5-1.03 1.07-1.05l32.73-1.08-32.77-3.92c-.57-.07-.99-.56-.98-1.13.02-.57.47-1.04 1.04-1.07l29.49-1.81-33.05-3.02c-.57-.05-1.01-.54-1.01-1.11 0-.58.45-1.05 1.03-1.1l34.08-2.54-38.88-1.41c-.57-.02-1.04-.48-1.07-1.05s.38-1.07.95-1.15l43.29-6.03-73.45 2.52c-.59.01-1.1-.43-1.14-1.02-.05-.59.38-1.11.97-1.18l82.91-9.79-92.73-.31c-.6 0-1.08-.47-1.1-1.07-.02-.59.43-1.1 1.03-1.14l78.29-5.74-78.29-4.35c-.58-.03-1.04-.51-1.05-1.09s.44-1.07 1.02-1.12l70.18-5.77-68.26-3.24c-.58-.03-1.04-.5-1.05-1.08-.02-.58.42-1.07.99-1.13l66.64-6.99-54.02-2.56c-.56-.03-1.02-.47-1.05-1.04-.03-.56.36-1.06.92-1.16l25.18-4.3-10.98-1.5c-.61-.08-1.03-.64-.95-1.25s.64-1.03 1.25-.95l18.11 2.48c.54.07.95.53.96 1.08s-.38 1.02-.92 1.11l-22.23 3.8 58.39 2.77c.58.03 1.04.5 1.05 1.08.02.58-.42 1.07-.99 1.13l-66.64 6.99 70.8 3.36c.58.03 1.04.5 1.06 1.09.01.58-.43 1.08-1.02 1.12l-71.2 5.86 79.41 4.41c.58.03 1.04.51 1.05 1.1.01.58-.44 1.07-1.03 1.11l-66.51 4.87 82.06.26c.59 0 1.07.46 1.1 1.04s-.39 1.09-.98 1.16l-74.72 8.82 68.13-2.33c.59-.03 1.09.42 1.14 1.01s-.37 1.11-.95 1.19l-51.81 7.22 46.25 1.68c.59.02 1.06.5 1.07 1.09s-.44 1.08-1.03 1.13l-40.72 3.03 34.19 3.12c.58.05 1.02.54 1.01 1.12s-.46 1.05-1.04 1.09l-31.79 1.95 35.03 4.21c.57.07 1 .57.97 1.15s-.49 1.04-1.07 1.06l-34.36 1.13 34.07 4.76c.57.08.99.59.95 1.17s-.51 1.03-1.09 1.04l-25.67.39 19.85 1.54c.58.04 1.02.53 1.02 1.1 0 .58-.45 1.06-1.02 1.1l-20.64 1.59 16.92.48c.57.02 1.04.46 1.07 1.03.04.57-.36 1.08-.93 1.17l-20.4 3.32h20.08c.56 0 1.04.42 1.1.98s-.3 1.08-.85 1.21l-16.27 3.83 12.2-1.11c.58-.05 1.09.35 1.19.91.1.57-.25 1.12-.81 1.26l-17.63 4.58h12.12c.56 0 1.04.42 1.1.98s-.31 1.08-.86 1.2l-13.09 2.96 6.72.78c.55.06.97.52.98 1.08.01.55-.39 1.03-.94 1.12l-12 1.86c-.05-0-.11.01-.16.01z" fill="#1d8f92"/><g fill="#4b4f52"><path d="m147.36 11.46h1.08v105.31h-1.08z"/><path d="m172.39 42.19 11.74-29.86h3.19l11.45 29.86h-2.9l-3.44-9.37h-13.6l-3.53 9.37zm7.38-11.78h11.7l-5.85-15.68z"/><path d="m208.97 16.14h-.08v26.05h-2.82v-29.86h3.19l17.25 26.09h.08v-26.09h2.82v29.86h-3.28z"/><path d="m242.52 16.14h-.08v26.05h-2.82v-29.86h3.19l17.25 26.09h.08v-26.09h2.82v29.86h-3.28z"/><path d="m272.29 12.33h2.82v17.79c0 3.71.69 6.37 2.07 8s3.61 2.45 6.68 2.45c1.6 0 2.97-.21 4.09-.64s2.02-1.08 2.72-1.95c.69-.87 1.19-1.96 1.49-3.25.3-1.3.46-2.83.46-4.6v-17.8h2.82v18.62c0 3.9-.96 6.88-2.88 8.94s-4.82 3.09-8.69 3.09c-3.9 0-6.8-1.05-8.71-3.15s-2.86-5.06-2.86-8.88v-18.62z"/><path d="m298.88 42.19 11.74-29.86h3.19l11.45 29.86h-2.9l-3.44-9.37h-13.6l-3.53 9.37zm7.38-11.78h11.7l-5.85-15.68z"/><path d="m332.35 42.19v-29.86h2.82v27.46h16.01v2.41h-18.83z"/><path d="m192.89 78.06h-18.24v-28.2h5.9v23.32h12.33v4.88z"/><path d="m218.46 78.06h-18.69v-28.2h18.69v4.87h-12.78v6.8h12.06v4.53h-12.06v7.12h12.78z"/><path d="m242.95 71.22h-9.91l-2.15 6.84h-6.06l9.79-28.21h6.94l9.81 28.21h-6.27zm-8.64-4.41h7.37l-3.62-11.55h-.14z"/><path d="m268.71 49.86c8.46 0 13.45 5.04 13.45 14 0 8.95-4.98 14.21-13.45 14.21h-10.77v-28.21zm-4.86 23.32h4.16c5.28 0 8.13-3.21 8.13-9.3 0-5.9-2.93-9.15-8.13-9.15h-4.16z"/><path d="m308.6 78.06h-18.69v-28.2h18.69v4.87h-12.78v6.8h12.06v4.53h-12.06v7.12h12.78z"/><path d="m322.8 78.06h-5.9v-28.2h11.55c6.49 0 10.2 3.42 10.2 8.99 0 3.62-1.88 6.74-5.12 8.01l5.94 11.2h-6.68l-5.26-10.32h-4.73zm0-14.6h5.08c2.97 0 4.71-1.7 4.71-4.5 0-2.74-1.84-4.5-4.77-4.5h-5.02z"/><path d="m350.59 70.01c.37 2.36 2.76 3.77 5.96 3.77 3.15 0 5.3-1.53 5.3-3.6 0-1.86-1.33-2.91-4.87-3.64l-2.97-.59c-5.63-1.11-8.38-3.81-8.38-8.01 0-5.16 4.5-8.58 10.77-8.58 6.59 0 10.73 3.44 10.83 8.62h-5.57c-.2-2.4-2.29-3.85-5.26-3.85-2.91 0-4.87 1.37-4.87 3.44 0 1.74 1.37 2.81 4.69 3.48l2.99.61c5.96 1.19 8.56 3.6 8.56 7.88 0 5.51-4.32 8.99-11.38 8.99-6.72 0-11.2-3.21-11.38-8.52z"/><path d="m187.36 115.29c-8.42 0-13.58-5.49-13.58-14.66 0-9.03 5.16-14.5 13.45-14.5 6.59 0 11.55 3.89 12.39 9.6h-5.92c-.86-2.95-3.26-4.71-6.45-4.71-4.65 0-7.45 3.54-7.45 9.54 0 6.12 2.97 9.85 7.66 9.85 3.85 0 6.53-2.36 6.65-5.86l.02-.45h-6.14v-4.3h11.88v3.19c-0 7.66-4.65 12.3-12.51 12.3z"/><path d="m224.65 107.98h-9.91l-2.15 6.84h-6.06l9.79-28.21h6.94l9.81 28.21h-6.27zm-8.64-4.42h7.37l-3.62-11.55h-.14z"/><path d="m243.26 114.82v-23.34h-8.15v-4.87h22.22v4.87h-8.17v23.34z"/><path d="m281.54 114.82v-11.88h-12.71v11.88h-5.9v-28.21h5.9v11.46h12.71v-11.46h5.9v28.21z"/><path d="m315.43 114.82h-18.69v-28.21h18.69v4.87h-12.78v6.8h12.06v4.53h-12.06v7.12h12.78z"/><path d="m329.63 114.82h-5.9v-28.21h11.55c6.49 0 10.2 3.42 10.2 8.99 0 3.62-1.88 6.74-5.12 8.01l5.94 11.2h-6.68l-5.26-10.32h-4.73zm0-14.61h5.08c2.97 0 4.71-1.7 4.71-4.5 0-2.74-1.84-4.5-4.77-4.5h-5.02z"/><path d="m351.4 114.82v-28.21h5.9v28.21z"/><path d="m366.65 114.82v-28.21h4.93l13.17 18.37h.16v-18.37h5.65v28.21h-4.89l-13.19-18.47h-.18v18.47z"/><path d="m412.36 115.29c-8.42 0-13.58-5.49-13.58-14.66 0-9.03 5.16-14.5 13.45-14.5 6.59 0 11.55 3.89 12.39 9.6h-5.92c-.86-2.95-3.26-4.71-6.45-4.71-4.65 0-7.45 3.54-7.45 9.54 0 6.12 2.97 9.85 7.66 9.85 3.85 0 6.53-2.36 6.65-5.86l.02-.45h-6.14v-4.3h11.88v3.19c0 7.66-4.65 12.3-12.51 12.3z"/></g></svg>